<svg width="316" height="367" viewBox="0 0 316 367" fill="none" xmlns="http://www.w3.org/2000/svg">
<path d="M14.9553 58.0359H300.153C303.866 58.0359 307.427 59.5109 310.052 62.1364C312.678 64.7619 314.153 68.3229 314.153 72.0359V94.2737H0.955322V72.0359C0.955325 68.3229 2.43032 64.7619 5.05582 62.1364C7.68133 59.5109 11.2423 58.0359 14.9553 58.0359Z" fill="#3F3D56"/>
<path d="M294.517 51.0429C293.128 51.0501 291.749 51.3257 290.436 51.8587C289.985 49.7311 288.887 47.8707 287.349 46.6287C285.81 45.3867 283.938 44.8492 282.084 45.1175C280.231 45.3859 278.526 46.4416 277.291 48.0853C276.055 49.7289 275.375 51.8469 275.378 54.0393C275.378 54.0841 275.388 54.1256 275.388 54.1703C274.431 54.2768 273.487 54.5065 272.573 54.8552C272.314 53.6453 271.844 52.5118 271.192 51.5262C270.541 50.5406 269.722 49.7244 268.789 49.129C271.241 47.5367 273.181 45.0434 274.311 42.0317C280.554 41.9124 285.585 36.6127 285.585 30.0679C285.585 23.4483 280.444 18.0822 274.102 18.0822C272.713 18.0895 271.334 18.3651 270.021 18.8981C269.786 17.7196 269.349 16.6094 268.738 15.6345C268.127 14.6596 267.354 13.8402 266.466 13.2258C265.578 12.6113 264.593 12.2146 263.57 12.0595C262.548 11.9044 261.509 11.9942 260.517 12.3235C259.525 12.6528 258.6 13.2147 257.798 13.9753C256.997 14.7359 256.334 15.6794 255.851 16.749C255.368 17.8185 255.075 18.9918 254.989 20.1981C254.903 21.4044 255.026 22.6186 255.351 23.7675C255.046 24.0168 254.761 24.2968 254.476 24.5753C253.033 23.1166 251.158 22.3839 249.258 22.5357C248.277 19.2266 246.335 16.4285 243.773 14.6316C241.211 12.8347 238.192 12.1536 235.246 12.7077C232.299 13.2617 229.613 15.0157 227.657 17.6621C225.701 20.3085 224.601 23.6787 224.548 27.1822C223.524 27.2773 222.513 27.5141 221.537 27.8874C221.427 27.3803 221.28 26.8855 221.097 26.4085C222.104 25.365 222.913 24.0846 223.472 22.6502C224.031 21.2159 224.328 19.6596 224.342 18.0822C224.342 11.4626 219.2 6.09655 212.858 6.09655C211.469 6.10377 210.091 6.37941 208.778 6.91242C208.542 5.73394 208.106 4.62373 207.495 3.64881C206.883 2.67389 206.11 1.85448 205.222 1.24004C204.334 0.625595 203.349 0.228885 202.327 0.0738198C201.304 -0.0812449 200.266 0.00855668 199.274 0.337827C198.282 0.667096 197.357 1.22902 196.555 1.98963C195.753 2.75023 195.09 3.69375 194.608 4.76327C194.125 5.83279 193.832 7.00611 193.746 8.21239C193.66 9.41867 193.783 10.6329 194.107 11.7818C192.501 13.0921 191.173 14.8197 190.227 16.8304C189.281 18.8411 188.742 21.0808 188.653 23.3756C188.545 23.4882 188.422 23.5793 188.319 23.6989C188.51 22.8433 188.61 21.9631 188.616 21.0787C188.616 14.4591 183.475 9.09297 177.133 9.09297C175.744 9.10018 174.365 9.37583 173.052 9.90884C172.817 8.73037 172.38 7.62015 171.769 6.64523C171.158 5.67031 170.385 4.8509 169.497 4.23646C168.609 3.62202 167.624 3.22531 166.601 3.07024C165.579 2.91518 164.54 3.00498 163.548 3.33425C162.556 3.66352 161.631 4.22544 160.829 4.98605C160.027 5.74665 159.365 6.69017 158.882 7.75969C158.399 8.82921 158.106 10.0025 158.02 11.2088C157.934 12.4151 158.057 13.6293 158.382 14.7782C156.688 16.1528 155.303 17.9895 154.347 20.1307C153.39 22.2719 152.891 24.6536 152.891 27.0715C152.891 29.4894 153.39 31.8711 154.347 34.0123C155.303 36.1536 156.688 37.9902 158.382 39.3648C157.865 41.106 157.865 43.0012 158.382 44.7424C157.103 45.7901 155.997 47.1016 155.117 48.6132C154.645 46.6006 153.587 44.8458 152.128 43.6536C150.668 42.4614 148.899 41.9071 147.128 42.0868C145.356 42.2666 143.695 43.1691 142.431 44.6377C141.167 46.1063 140.382 48.0481 140.21 50.1261C139.187 49.4222 138.082 48.8979 136.93 48.5697C138.997 46.9674 140.624 44.6966 141.616 42.0317C147.86 41.9124 152.891 36.6127 152.891 30.0679C152.891 23.4483 147.75 18.0822 141.407 18.0822C140.018 18.0895 138.64 18.3651 137.327 18.8981C137.091 17.7196 136.655 16.6094 136.044 15.6345C135.432 14.6596 134.66 13.8402 133.771 13.2257C132.883 12.6113 131.898 12.2146 130.876 12.0595C129.853 11.9044 128.815 11.9942 127.823 12.3235C126.831 12.6528 125.906 13.2147 125.104 13.9753C124.302 14.7359 123.639 15.6794 123.157 16.749C122.674 17.8185 122.381 18.9918 122.295 20.1981C122.209 21.4044 122.332 22.6186 122.656 23.7674C122.493 23.9011 122.345 24.0584 122.187 24.2007C121.789 24.1572 121.402 24.0751 120.993 24.0751C119.604 24.0823 118.225 24.3579 116.912 24.8909C116.864 24.6649 116.784 24.4551 116.722 24.2362C116.969 22.9022 116.949 21.5192 116.665 20.1956C116.38 18.8721 115.837 17.6442 115.08 16.6083C114.323 15.5724 113.371 14.7568 112.3 14.2255C111.229 13.6943 110.068 13.4618 108.908 13.5465C108.243 11.3736 107.16 9.41072 105.742 7.81127C104.324 6.21182 102.61 5.01916 100.735 4.32658C98.8593 3.63399 96.8728 3.46026 94.9305 3.81895C92.9883 4.17764 91.143 5.05902 89.5391 6.39419C87.9351 7.72936 86.6159 9.48211 85.6846 11.5154C84.7534 13.5487 84.2353 15.8073 84.1709 18.1148C84.1065 20.4222 84.4976 22.7158 85.3135 24.8163C86.1294 26.9168 87.3481 28.7672 88.8742 30.2228C87.9962 30.3411 87.1306 30.5625 86.2903 30.8838C85.9886 29.4228 85.3769 28.0753 84.5123 26.9667C83.6476 25.8581 82.5581 25.0245 81.3452 24.5434C80.1323 24.0624 78.8355 23.9495 77.5754 24.2155C76.3154 24.4814 75.1332 25.1174 74.1389 26.0643C73.0016 24.4783 71.5788 23.2084 69.973 22.3462C68.3672 21.484 66.6184 21.0511 64.8528 21.0787C63.4637 21.0859 62.085 21.3615 60.772 21.8945C60.5365 20.7161 60.1 19.6058 59.4889 18.6309C58.8779 17.656 58.1049 16.8366 57.2167 16.2222C56.3285 15.6077 55.3434 15.211 54.321 15.0559C53.2986 14.9009 52.2601 14.9907 51.2681 15.3199C50.2761 15.6492 49.3512 16.2111 48.5492 16.9717C47.7472 17.7323 47.0848 18.6759 46.602 19.7454C46.1192 20.8149 45.8259 21.9882 45.7399 23.1945C45.6539 24.4008 45.777 25.615 46.1017 26.7639C44.408 28.1388 43.0237 29.9756 42.0673 32.1167C41.1109 34.2579 40.611 36.6394 40.6106 39.0572C40.6106 39.1036 40.6219 39.1463 40.6222 39.1925C38.8128 38.8706 36.9631 39.1051 35.2538 39.8731C35.0182 38.6946 34.5817 37.5844 33.9707 36.6095C33.3596 35.6346 32.5867 34.8152 31.6985 34.2008C30.8103 33.5864 29.8252 33.1897 28.8028 33.0346C27.7805 32.8795 26.7419 32.9693 25.7499 33.2986C24.7579 33.6279 23.833 34.1898 23.031 34.9504C22.2291 35.711 21.5667 36.6545 21.0839 37.724C20.601 38.7935 20.3078 39.9668 20.2218 41.1731C20.1358 42.3793 20.2588 43.5936 20.5835 44.7424C18.1225 46.6987 16.3233 49.606 15.4988 52.9587C14.6743 56.3114 14.8767 59.8974 16.0707 63.093C17.2648 66.2887 19.375 68.8918 22.0343 70.4496C24.6937 72.0075 27.7339 72.4215 30.6263 71.6197C31.0869 74.7459 32.3837 77.6184 34.3285 79.8208C36.2733 82.0231 38.7651 83.4406 41.4424 83.8677C44.1196 84.2947 46.8432 83.7092 49.2179 82.196C51.5926 80.6827 53.495 78.3205 54.6491 75.4519C55.6944 78.0487 57.3552 80.2364 59.4325 81.7528C61.5099 83.2692 63.9156 84.0499 66.3613 84.0014C68.8069 83.9529 71.1888 83.0772 73.2214 81.4793C75.2539 79.8814 76.8509 77.6291 77.8208 74.9923C79.3244 74.9675 80.8123 74.6293 82.2152 73.9934C83.0586 76.8317 84.6122 79.3049 86.6725 81.0892C88.7328 82.8736 91.2038 83.886 93.7623 83.9939C96.3207 84.1019 98.8473 83.3003 101.011 81.6942C103.175 80.0881 104.876 77.7522 105.891 74.9923C107.751 74.9489 109.58 74.4176 111.243 73.4372C112.407 75.8539 114.123 77.8409 116.197 79.1745C118.271 80.508 120.621 81.1352 122.982 80.9854C125.344 80.8356 127.622 79.9148 129.562 78.3266C131.502 76.7383 133.025 74.5458 133.961 71.9959C134.646 71.9762 135.328 71.8924 136.001 71.7452C136.956 74.4643 138.572 76.7928 140.647 78.44C142.722 80.0871 145.165 80.9797 147.669 81.0065C150.174 81.0332 152.63 80.1929 154.73 78.5903C156.831 76.9878 158.482 74.6942 159.479 71.9959C160.481 71.9627 161.477 71.7904 162.444 71.4824C165.009 72.3217 167.735 72.1728 170.222 71.0575C172.709 69.9423 174.826 67.9194 176.261 65.2865C175.459 68.9353 175.859 72.8049 177.379 76.1234C178.899 79.4419 181.43 81.9653 184.464 83.1902C187.499 84.4152 190.816 84.2516 193.753 82.7321C196.689 81.2126 199.03 78.4489 200.308 74.9923C202.169 74.9489 203.997 74.4176 205.66 73.4372C206.825 75.8539 208.541 77.8409 210.615 79.1745C212.689 80.508 215.039 81.1352 217.4 80.9854C219.761 80.8356 222.04 79.9148 223.979 78.3266C225.919 76.7383 227.442 74.5458 228.378 71.9959C230.239 71.9525 232.067 71.4212 233.731 70.4408C234.628 72.3184 235.863 73.944 237.349 75.2045C238.836 76.465 240.539 77.3301 242.339 77.7398C244.139 78.1495 245.993 78.0939 247.773 77.5769C249.553 77.0598 251.216 76.0937 252.646 74.7458C253.089 77.6122 254.237 80.2635 255.948 82.3726C257.66 84.4817 259.86 85.9563 262.276 86.6144C264.693 87.2725 267.221 87.0852 269.549 86.0758C271.876 85.0664 273.9 83.279 275.373 80.9342C276.904 82.3123 278.683 83.2617 280.575 83.7097C282.466 84.1578 284.42 84.0928 286.286 83.5197C288.153 82.9465 289.884 81.8804 291.346 80.4026C292.809 78.9248 293.965 77.0743 294.726 74.9923C300.969 74.8731 306 69.5734 306 63.0286C306 56.409 300.859 51.0429 294.517 51.0429ZM66.4397 44.8587C66.4263 44.931 66.4169 45.005 66.4043 45.0778C66.3112 45.0738 66.2229 45.0501 66.1288 45.0501C65.7474 45.0614 65.3674 45.1064 64.9918 45.1847C65.0125 45.1307 65.0416 45.0825 65.0617 45.0281C65.5233 45.0011 65.9833 44.9446 66.4397 44.8587V44.8587ZM173.052 39.8731C173.015 39.6986 172.951 39.5382 172.906 39.3679C174.854 37.7817 176.39 35.592 177.342 33.0424C179.02 33.0319 180.677 32.6064 182.206 31.7936C183.735 30.9808 185.1 29.799 186.214 28.3251C186.116 28.8989 186.066 29.4827 186.064 30.068C186.075 30.9823 186.206 31.8892 186.452 32.7568C184.261 34.5504 182.602 37.1036 181.708 40.0589C178.933 38.7905 175.865 38.7246 173.052 39.8731V39.8731ZM249.48 40.9903C249.475 40.8067 249.494 40.6174 249.484 40.4351C249.809 40.4336 250.134 40.4077 250.457 40.3575C250.952 42.2962 251.779 44.0956 252.888 45.6453C252.647 45.7247 252.393 45.7724 252.159 45.8659C251.746 43.9392 250.805 42.2256 249.48 40.9903V40.9903Z" fill="#F9CA25"/>
<path d="M27.029 70.978C23.3575 70.9777 19.7244 71.7255 16.3515 73.1758C12.9786 74.626 9.93654 76.7484 7.41099 79.4132C4.88545 82.0781 2.92937 85.2296 1.66212 88.6755C0.394877 92.1214 -0.156964 95.7893 0.0402817 99.4555L17.5677 340.476C17.9372 347.384 20.9419 353.887 25.9628 358.646C30.9837 363.405 37.6385 366.057 44.5564 366.057H270.552C277.47 366.057 284.124 363.405 289.145 358.646C294.166 353.887 297.171 347.384 297.54 340.476L315.068 99.4555C315.265 95.7893 314.713 92.1214 313.446 88.6755C312.179 85.2296 310.223 82.0781 307.697 79.4132C305.172 76.7484 302.13 74.626 298.757 73.1758C295.384 71.7255 291.751 70.9777 288.079 70.978H27.029Z" fill="#3F3D56"/>
<path d="M55.3119 70.978H39.7815V366.057H55.3119V70.978Z" fill="#E5E5E5"/>
<path d="M99.3149 70.978H83.7844V366.057H99.3149V70.978Z" fill="#E5E5E5"/>
<path d="M143.318 70.978H127.787V366.057H143.318V70.978Z" fill="#E5E5E5"/>
<path d="M187.321 70.978H171.79V366.057H187.321V70.978Z" fill="#E5E5E5"/>
<path d="M231.324 70.978H215.793V366.057H231.324V70.978Z" fill="#E5E5E5"/>
<path d="M275.327 70.978H259.796V366.057H275.327V70.978Z" fill="#E5E5E5"/>
<path d="M201.99 218.99L143 247.98V218.99V190L201.99 218.99Z" fill="#F9A826"/>
</svg>
